<svg width="614" height="115" viewBox="0 0 614 115" fill="none" xmlns="http://www.w3.org/2000/svg">
<mask id="mask0_113_10" style="mask-type:luminance" maskUnits="userSpaceOnUse" x="0" y="0" width="614" height="115">
<path d="M614 0H0V115H614V0Z" fill="white"/>
</mask>
<g mask="url(#mask0_113_10)">
<path d="M129.6 15.1C111.6 14.6 86.4 15.6 68.1 15.6V109.2H94.3V38.4C94.3 38.4 117.6 37.6 126 38.6C133.9 39.5 136.8 44.4 137.1 54.6C137.3 66.2 137.1 72.3 137.1 109.2H163.3C163.3 109.2 163.6 67 163.3 52.3C162.9 26.2 153.8 15.7 129.6 15.1Z" fill="white"/>
<path d="M250.8 14.8C224.9 14.8 203.8 36 203.8 62.1C203.8 88.2 224.9 109.4 250.8 109.4C276.7 109.4 297.8 88.2 297.8 62.1C297.8 36 276.7 14.8 250.8 14.8ZM250.8 86.8C237.2 86.8 226.2 75.7 226.2 62C226.2 48.3 237.2 37.2 250.8 37.2C264.4 37.2 275.4 48.3 275.4 62C275.4 75.8 264.4 86.8 250.8 86.8Z" fill="white"/>
<path d="M545.4 62.1C545.4 36 524.3 14.8 498.4 14.8C472.5 14.8 451.4 36 451.4 62.1C451.4 77.4 458.4 90.5 469.3 99.2C476.9 105.2 487.5 109.4 501.7 109.4C508.6 109.4 526.5 107.5 539.4 93.2L528.8 79C524.3 83 513 88.6 504 88.6C492.6 88.6 485.7 86.4 480.7 81.7C477.6 78.9 475.4 74.6 474.4 69.3H544.7C545.1 66.9 545.4 64.6 545.4 62.1ZM474.6 53.5C477.2 42.4 485 34.2 498.3 34.2C512.2 34.2 519.5 43 521.9 53.5H474.6Z" fill="white"/>
<path d="M386.8 6.09998H362.3V32.4H337.1V55.4H362.3V82.7H386.8V55.4H412V32.4H386.8V6.09998Z" fill="white"/>
</g>
</svg>
