<svg width="1200" height="1200" viewBox="0 0 1200 1200" fill="none" xmlns="http://www.w3.org/2000/svg">
<g clip-path="url(#clip0_60_107)">
<path fill-rule="evenodd" clip-rule="evenodd" d="M1005.53 974.169H240.005C274.556 880.635 333.368 782.148 413.788 691.026C624.608 452.151 904.095 354.337 1038.04 472.55C1145.67 567.542 1126.58 773.122 1005.53 974.169Z" fill="#205EA5"/>
<path d="M167.699 915.507C227.826 968.256 317.882 964.879 406.514 930.285C496.609 895.121 593.621 825.044 677.587 729.334C761.554 633.625 818.407 528.316 841.545 434.41C864.307 342.03 855.934 252.3 795.807 199.551C735.68 146.801 645.623 150.179 556.992 184.772C466.897 219.937 369.884 290.013 285.918 385.723C201.952 481.433 145.099 586.741 121.961 680.647C99.1985 773.027 107.572 862.757 167.699 915.507Z" stroke="white" stroke-width="56"/>
<path d="M168.004 914.341C226.35 965.528 314.569 964.352 404.353 930.18C495.083 895.649 593.002 825.724 677.609 729.284C762.216 632.843 818.8 526.656 841.228 432.204C863.422 338.735 853.105 251.114 794.759 199.926C736.412 148.739 648.193 149.915 558.409 184.087C467.68 218.618 369.761 288.543 285.153 384.983C200.546 481.423 143.962 587.611 121.534 682.063C99.3402 775.531 109.657 863.153 168.004 914.341Z" stroke="#37A96E" stroke-width="40"/>
<path d="M286.36 1097.02V1159H252.2V1001.13H286.36V1067.26H313.444V1001.13H347.604V1159H313.444V1097.02H286.36ZM434.763 998.692C454.934 998.692 465.019 1009.43 465.019 1030.9V1159H430.859V1106.05H406.215V1159H372.055V1030.9C372.055 1009.43 382.141 998.692 402.311 998.692H434.763ZM406.215 1079.7H430.859V1026.75C430.859 1025.45 430.371 1024.31 429.395 1023.34C428.582 1022.36 427.525 1021.87 426.223 1021.87H410.851C409.55 1021.87 408.411 1022.36 407.435 1023.34C406.622 1024.31 406.215 1025.45 406.215 1026.75V1079.7ZM578.077 1042.61H545.625V1030.17C545.625 1028.87 545.137 1027.73 544.161 1026.75C543.348 1025.78 542.291 1025.29 540.989 1025.29H527.569C526.268 1025.29 525.129 1025.78 524.153 1026.75C523.34 1027.73 522.933 1028.87 522.933 1030.17V1058.23C522.933 1059.53 523.34 1060.67 524.153 1061.64C525.129 1062.62 526.268 1063.11 527.569 1063.11H549.529C569.7 1063.43 579.785 1074.17 579.785 1095.32V1129.23C579.785 1150.7 569.7 1161.44 549.529 1161.44H520.737C500.567 1161.44 490.481 1150.7 490.481 1129.23V1112.88H522.933V1130.45C522.933 1131.75 523.34 1132.89 524.153 1133.87C525.129 1134.84 526.268 1135.33 527.569 1135.33H542.697C543.999 1135.33 545.056 1134.84 545.869 1133.87C546.845 1132.89 547.333 1131.75 547.333 1130.45V1099.46C547.333 1098.16 546.845 1097.02 545.869 1096.05C545.056 1095.07 543.999 1094.58 542.697 1094.58H520.737C500.567 1094.58 490.481 1083.85 490.481 1062.38V1030.9C490.481 1009.43 500.567 998.692 520.737 998.692H547.821C567.992 998.692 578.077 1009.43 578.077 1030.9V1042.61ZM636.395 1001.13V1159H602.235V1001.13H636.395ZM740.129 1023.34L693.037 1133.62H740.129V1159H657.413V1138.02L704.749 1026.75H658.877V1001.13H740.129V1023.34ZM792.702 1159H758.542V1030.9C758.542 1009.43 768.627 998.692 788.798 998.692H806.854C818.729 998.692 827.187 1002.6 832.23 1010.4C836.947 1002.6 845.406 998.692 857.606 998.692H875.662C895.833 998.692 905.918 1009.43 905.918 1030.9V1159H871.758V1027.97C871.758 1026.67 871.27 1025.53 870.294 1024.56C869.481 1023.58 868.423 1023.09 867.122 1023.09H853.946C852.645 1023.09 851.506 1023.58 850.53 1024.56C849.717 1025.53 849.31 1026.67 849.31 1027.97V1159H815.15V1027.97C815.15 1026.67 814.662 1025.53 813.686 1024.56C812.873 1023.58 811.815 1023.09 810.514 1023.09H797.338C796.037 1023.09 794.898 1023.58 793.922 1024.56C793.109 1025.53 792.702 1026.67 792.702 1027.97V1159ZM963.555 1130.7H1001.38V1159H929.395V1001.13H1001.38V1028.95H963.555V1066.04H998.935V1092.88H963.555V1130.7Z" fill="black"/>
</g>
<defs>
<clipPath id="clip0_60_107">
<rect width="1200" height="1200" fill="white"/>
</clipPath>
</defs>
</svg>
